<svg width="24" height="24" viewBox="0 0 24 24" fill="none" xmlns="http://www.w3.org/2000/svg">
  <path d="M4 11C6.38695 11 8.67613 11.9482 10.364 13.636C12.0518 15.3239 13 17.6131 13 20H16C16 15.7565 14.3143 11.6869 11.3137 8.68629C8.31309 5.68571 4.24346 4 0 4V7C2.12173 7 4.15656 7.84285 5.65685 9.34315C7.15714 10.8434 8 12.8783 8 15H11C11 13.6739 10.4732 12.4021 9.53553 11.4645C8.59785 10.5268 7.32608 10 6 10V11H4Z" fill="currentColor"/>
  <circle cx="6" cy="18" r="2" fill="currentColor"/>
</svg>